<?xml version="1.0" encoding="UTF-8" standalone="no"?>
<svg
   xmlns:dc="http://purl.org/dc/elements/1.1/"
   xmlns:cc="http://creativecommons.org/ns#"
   xmlns:rdf="http://www.w3.org/1999/02/22-rdf-syntax-ns#"
   xmlns:svg="http://www.w3.org/2000/svg"
   xmlns="http://www.w3.org/2000/svg"
   xmlns:sodipodi="http://sodipodi.sourceforge.net/DTD/sodipodi-0.dtd"
   xmlns:inkscape="http://www.inkscape.org/namespaces/inkscape"
   width="47pt"
   height="64pt"
   viewBox="0 0 47 64"
   version="1.1"
   id="svg282"
   sodipodi:docname="bike-pin-orange.svg"
   inkscape:version="1.0 (4035a4f, 2020-05-01)">
  <metadata
     id="metadata288">
    <rdf:RDF>
      <cc:Work
         rdf:about="">
        <dc:format>image/svg+xml</dc:format>
        <dc:type
           rdf:resource="http://purl.org/dc/dcmitype/StillImage" />
        <dc:title></dc:title>
      </cc:Work>
    </rdf:RDF>
  </metadata>
  <defs
     id="defs286" />
  <sodipodi:namedview
     inkscape:document-rotation="0"
     pagecolor="#ffffff"
     bordercolor="#666666"
     borderopacity="1"
     objecttolerance="10"
     gridtolerance="10"
     guidetolerance="10"
     inkscape:pageopacity="0"
     inkscape:pageshadow="2"
     inkscape:window-width="1280"
     inkscape:window-height="679"
     id="namedview284"
     showgrid="false"
     inkscape:zoom="6.9375"
     inkscape:cx="21.387388"
     inkscape:cy="52.900901"
     inkscape:window-x="0"
     inkscape:window-y="25"
     inkscape:window-maximized="0"
     inkscape:current-layer="surface1" />
  <g
     id="surface1"
     transform="matrix(0.48312663,0,0,0.49974415,15.21055,22.548013)">
    <path
       style="fill:#ff6600;fill-opacity:0.988235;fill-rule:nonzero;stroke:none"
       d="m 23.488281,63.320312 c -0.140625,-0.34375 -3.082031,-3.21875 -5.1875,-5.828124 C 5.828125,40.929688 -8.078125,25.542969 8.160156,6.839844 15.351562,-0.105469 24.214844,-0.5 33.332031,2.738281 58.996094,17.585938 40.414062,41.8125 28.214844,57.742188 Z M 31.207031,37.9375 C 48.328125,25.695312 35.09375,2.121094 16.285156,9.957031 c -5.492187,2.929688 -8.21875,8.023438 -8.3125,14.035157 -0.261718,5.84375 2.84375,10.734374 7.761719,13.730468 3.527344,1.917969 5.078125,2.265625 9.074219,2.027344 2.589844,-0.15625 4.078125,-0.578125 6.398437,-1.8125 z m 0,0"
       id="path273" />
    <path
       style="fill:#ff6600;fill-opacity:0.988235;fill-rule:nonzero;stroke:none"
       d="M 18.582031,43.78125 C 6.488281,41.261719 -1.257812,29.683594 1.242188,17.859375 3.746094,6.035156 15.554688,-1.597656 27.683594,0.769531 39.8125,3.136719 47.707031,14.617188 45.359375,26.472656 43.011719,38.328125 31.300781,46.105469 19.144531,43.890625"
       id="path275" />
    <path
       style="fill:#ffccaa;fill-opacity:1;fill-rule:nonzero;stroke:none;opacity:0.59"
       d="M 20.054688,40.691406 C 11.066406,38.714844 5.3125,29.632812 7.171875,20.359375 9.03125,11.082031 17.804688,5.09375 26.816406,6.953125 c 9.007813,1.855469 14.875,10.863281 13.132813,20.160156 -1.746094,9.300781 -10.445313,15.402344 -19.480469,13.664063"
       id="path277" />
    <path
       style="fill:#ffffff;fill-opacity:1;fill-rule:nonzero;stroke:none"
       d="m 21.007812,34.710938 c -5.941406,-1.292969 -9.75,-7.25 -8.519531,-13.332032 1.230469,-6.078125 7.03125,-10.007812 12.992188,-8.789062 5.957031,1.21875 9.839843,7.125 8.683593,13.21875 -1.152343,6.097656 -6.90625,10.101562 -12.878906,8.960937"
       id="path279" />
    <g
       id="g628"
       transform="matrix(0.03494361,0,0,0.04053272,14.617707,12.647488)">
      <g
         id="g616">
        <path
           id="path610"
           data-old_color="#CFCFCF"
           class="active-path"
           data-original="#CFCFCF"
           d="M 102.4,418.165 C 45.85,418.165 0,372.315 0,315.765 c 0,-56.55 45.85,-102.4 102.4,-102.4 56.55,0 102.4,45.85 102.4,102.4 0,56.55 -45.85,102.4 -102.4,102.4 z m 0,-187.734 c -47.13,0 -85.333,38.204 -85.333,85.333 0,47.129 38.204,85.333 85.333,85.333 47.129,0 85.333,-38.204 85.333,-85.333 0,-47.129 -38.203,-85.333 -85.333,-85.333 z"
           style="fill:#374957" />
        <path
           id="path612"
           data-old_color="#CFCFCF"
           class="active-path"
           data-original="#CFCFCF"
           d="m 409.6,418.165 c -56.55,0 -102.4,-45.85 -102.4,-102.4 0,-56.55 45.85,-102.4 102.4,-102.4 56.55,0 102.4,45.85 102.4,102.4 0,56.55 -45.85,102.4 -102.4,102.4 z m 0,-187.734 c -47.13,0 -85.333,38.204 -85.333,85.333 0,47.129 38.204,85.333 85.333,85.333 47.129,0 85.333,-38.204 85.333,-85.333 0,-47.129 -38.203,-85.333 -85.333,-85.333 z"
           style="fill:#374957" />
        <path
           id="path614"
           data-old_color="#CFCFCF"
           class="active-path"
           data-original="#CFCFCF"
           d="m 358.4,128.031 c -2.628,-0.017 -5.111,1.186 -6.741,3.243 -1.613,2.082 -2.185,4.787 -1.536,7.339 l 3.755,15.019 h 17.579 l -2.133,-8.533 h 23.211 V 128.032 H 358.4 Z"
           style="fill:#374957" />
      </g>
      <path
         id="path618"
         data-old_color="#8C421C"
         class=""
         data-original="#8C421C"
         d="m 426.667,157.898 c 0,7.066 -5.734,12.8 -12.8,12.8 h -21.333 v 17.067 h 21.333 c 16.495,0 29.867,-13.372 29.867,-29.867 0,-16.495 -13.372,-29.867 -29.867,-29.867 h -21.333 v 17.067 h 21.333 c 7.065,0 12.8,5.726 12.8,12.8 z"
         style="fill:#00af80" />
      <path
         id="path620"
         data-old_color="#77A226"
         class=""
         data-original="#77A226"
         d="m 417.024,302.965 c -11.017,-21.743 -19.601,-44.638 -25.6,-68.267 L 371.456,153.631 H 163.413 l 4.608,11.435 -81.664,155.221 c -1.527,2.637 -1.527,5.897 0,8.533 1.613,2.577 4.471,4.105 7.509,4.011 h 145.067 c 2.449,0 4.779,-1.058 6.4,-2.901 l 118.955,-134.741 11.179,43.776 c 6.229,24.875 15.155,48.998 26.624,71.936 l 8.533,17.579 15.189,-7.68 z m -308.992,12.8 68.267,-130.133 53.419,130.133 z M 244.053,305.61 188.842,170.698 H 358.4 l 1.109,4.352 z"
         style="fill:#ffce00" />
      <polygon
         id="polygon622"
         data-old_color="#CFCFCF"
         class="active-path"
         data-original="#CFCFCF"
         points="163.413,153.631 181.845,153.631 173.568,133.407 154.624,137.503 156.587,137.077 "
         style="fill:#374957" />
      <path
         id="path624"
         data-old_color="#8C421C"
         class=""
         data-original="#8C421C"
         d="m 196.267,93.898 h -76.8 c -4.71,0 -8.533,3.823 -8.533,8.533 0,19.84 16.085,35.925 35.925,35.925 2.611,0.017 5.214,-0.273 7.765,-0.853 l 18.944,-4.181 25.6,-5.632 c 8.286,-1.775 14.191,-9.105 14.165,-17.579 0.316,-8.67 -6.451,-15.949 -15.121,-16.265 -0.648,-0.025 -1.297,-0.008 -1.945,0.052 z"
         style="fill:#00af80" />
      <path
         id="path626"
         data-old_color="#CFCFCF"
         class="active-path"
         data-original="#CFCFCF"
         d="m 238.933,358.431 c -18.85,0 -34.133,-15.283 -34.133,-34.133 0,-18.85 15.283,-34.133 34.133,-34.133 18.85,0 34.133,15.283 34.133,34.133 0.001,18.85 -15.283,34.133 -34.133,34.133 z m 0,-51.2 c -9.429,0 -17.067,7.637 -17.067,17.067 0,9.429 7.637,17.067 17.067,17.067 9.429,0 17.067,-7.637 17.067,-17.067 0,-9.429 -7.637,-17.067 -17.067,-17.067 z"
         style="fill:#374957" />
    </g>
  </g>
</svg>
